{
  "accessors": [
    {
      "bufferView": 2,
      "componentType": 5126,
      "count": 7675,
      "max": [
        8.32079029083252,
        5.98027229309082,
        12.101029396057129
      ],
      "min": [
        -8.320786476135254,
        -4.275318622589111,
        0.020005133002996445
      ],
      "type": "VEC3"
    },
    {
      "bufferView": 2,
      "byteOffset": 92100,
      "componentType": 5126,
      "count": 7675,
      "max": [
        1.0,
        0.9999961853027344,
        1.0
      ],
      "min": [
        -1.0,
        -0.9999998807907104,
        -0.9999872446060181
      ],
      "type": "VEC3"
    },
    {
      "bufferView": 1,
      "componentType": 5126,
      "count": 7675,
      "max": [
        0.9978156685829163,
        0.9987226724624634
      ],
      "min": [
        0.01425158977508545,
        0.016228020191192627
      ],
      "type": "VEC2"
    },
    {
      "bufferView": 0,
      "componentType": 5125,
      "count": 41889,
      "type": "SCALAR"
    },
    {
      "bufferView": 2,
      "byteOffset": 184200,
      "componentType": 5126,
      "count": 4771,
      "max": [
        8.202839851379395,
        2.107935667037964,
        6.723687171936035
      ],
      "min": [
        -8.202835083007813,
        -3.701026439666748,
        0.13446806371212006
      ],
      "type": "VEC3"
    },
    {
      "bufferView": 2,
      "byteOffset": 241452,
      "componentType": 5126,
      "count": 4771,
      "max": [
        0.9998630285263062,
        0.9994291067123413,
        0.9999721050262451
      ],
      "min": [
        -0.9998630285263062,
        -0.9998311996459961,
        -1.0
      ],
      "type": "VEC3"
    },
    {
      "bufferView": 1,
      "byteOffset": 61400,
      "componentType": 5126,
      "count": 4771,
      "max": [
        0.9838383197784424,
        0.9951752424240112
      ],
      "min": [
        0.016588330268859863,
        0.01931452751159668
      ],
      "type": "VEC2"
    },
    {
      "bufferView": 0,
      "byteOffset": 167556,
      "componentType": 5125,
      "count": 24630,
      "type": "SCALAR"
    }
  ],
  "asset": {
    "extras": {
      "author": "SMF Friends Fan 2024 YouTube Live (https://sketchfab.com/cherylhill28)",
      "license": "CC-BY-4.0 (http://creativecommons.org/licenses/by/4.0/)",
      "source": "https://sketchfab.com/3d-models/fnf-vr-boyfriend-d74de5f1f86f4f09a3bfeaf3d1d42c12",
      "title": "FNF VR - Boyfriend"
    },
    "generator": "Sketchfab-16.54.0",
    "version": "2.0"
  },
  "bufferViews": [
    {
      "buffer": 0,
      "byteLength": 266076,
      "name": "floatBufferViews",
      "target": 34963
    },
    {
      "buffer": 0,
      "byteLength": 99568,
      "byteOffset": 266076,
      "byteStride": 8,
      "name": "floatBufferViews",
      "target": 34962
    },
    {
      "buffer": 0,
      "byteLength": 298704,
      "byteOffset": 365644,
      "byteStride": 12,
      "name": "floatBufferViews",
      "target": 34962
    }
  ],
  "buffers": [
    {
      "byteLength": 664348,
      "uri": "scene.bin"
    }
  ],
  "images": [
    {
      "uri": "textures/Material_baseColor.png"
    }
  ],
  "materials": [
    {
      "name": "Material",
      "pbrMetallicRoughness": {
        "baseColorTexture": {
          "index": 0
        },
        "metallicFactor": 0.0
      }
    }
  ],
  "meshes": [
    {
      "name": "Object_0",
      "primitives": [
        {
          "attributes": {
            "NORMAL": 1,
            "POSITION": 0,
            "TEXCOORD_0": 2
          },
          "indices": 3,
          "material": 0,
          "mode": 4
        }
      ]
    },
    {
      "name": "Object_1",
      "primitives": [
        {
          "attributes": {
            "NORMAL": 5,
            "POSITION": 4,
            "TEXCOORD_0": 6
          },
          "indices": 7,
          "material": 0,
          "mode": 4
        }
      ]
    }
  ],
  "nodes": [
    {
      "children": [
        1
      ],
      "matrix": [
        1.0,
        0.0,
        0.0,
        0.0,
        0.0,
        2.220446049250313e-16,
        -1.0,
        0.0,
        0.0,
        1.0,
        2.220446049250313e-16,
        0.0,
        0.0,
        0.0,
        0.0,
        1.0
      ],
      "name": "Sketchfab_model"
    },
    {
      "children": [
        2,
        3
      ],
      "name": "Boyfriend.obj.cleaner.materialmerger.gles"
    },
    {
      "mesh": 0,
      "name": "Object_2"
    },
    {
      "mesh": 1,
      "name": "Object_3"
    }
  ],
  "samplers": [
    {
      "magFilter": 9729,
      "minFilter": 9987,
      "wrapS": 10497,
      "wrapT": 10497
    }
  ],
  "scene": 0,
  "scenes": [
    {
      "name": "Sketchfab_Scene",
      "nodes": [
        0
      ]
    }
  ],
  "textures": [
    {
      "sampler": 0,
      "source": 0
    }
  ]
}
